<!-- Generated by IcoMoon.io -->
<svg version="1.1" xmlns="http://www.w3.org/2000/svg" width="32" height="32" viewBox="0 0 32 32">
<title>Support</title>
<path fill="none" stroke-linejoin="round" stroke-linecap="round" stroke-miterlimit="4" stroke-width="2.2069" stroke="#000" d="M16 30.897c8.227 0 14.897-6.669 14.897-14.897s-6.669-14.897-14.897-14.897c-8.227 0-14.897 6.669-14.897 14.897s6.669 14.897 14.897 14.897z"></path>
<path fill="none" stroke-linejoin="round" stroke-linecap="round" stroke-miterlimit="4" stroke-width="2.2069" stroke="#000" d="M16 21.959c3.291 0 5.959-2.668 5.959-5.959s-2.668-5.959-5.959-5.959c-3.291 0-5.959 2.668-5.959 5.959s2.668 5.959 5.959 5.959z"></path>
<path fill="none" stroke-linejoin="round" stroke-linecap="round" stroke-miterlimit="4" stroke-width="2.2069" stroke="#000" d="M20.216 20.216l6.316 6.316"></path>
<path fill="none" stroke-linejoin="round" stroke-linecap="round" stroke-miterlimit="4" stroke-width="2.2069" stroke="#000" d="M5.468 26.532l6.316-6.316"></path>
<path fill="none" stroke-linejoin="round" stroke-linecap="round" stroke-miterlimit="4" stroke-width="2.2069" stroke="#000" d="M20.216 11.784l6.316-6.316"></path>
<path fill="none" stroke-linejoin="round" stroke-linecap="round" stroke-miterlimit="4" stroke-width="2.2069" stroke="#000" d="M20.216 11.784l5.258-5.258"></path>
<path fill="none" stroke-linejoin="round" stroke-linecap="round" stroke-miterlimit="4" stroke-width="2.2069" stroke="#000" d="M5.468 5.468l6.316 6.316"></path>
</svg>
