<svg aria-hidden="true" style="position: absolute; width: 0; height: 0; overflow: hidden;" version="1.1" xmlns="http://www.w3.org/2000/svg" xmlns:xlink="http://www.w3.org/1999/xlink">
<defs>
<symbol id="icon-Dotted" viewBox="0 0 32 32">
<path fill="#d9d9d9" style="fill: var(--color1, #d9d9d9)" opacity="0.3" d="M1.108 5.662c0 0.272-0.248 0.492-0.554 0.492s-0.554-0.22-0.554-0.492c0-0.272 0.248-0.492 0.554-0.492s0.554 0.22 0.554 0.492z"></path>
<path fill="#d9d9d9" style="fill: var(--color1, #d9d9d9)" opacity="0.3" d="M5.538 5.662c0 0.272-0.248 0.492-0.554 0.492s-0.554-0.22-0.554-0.492c0-0.272 0.248-0.492 0.554-0.492s0.554 0.22 0.554 0.492z"></path>
<path fill="#d9d9d9" style="fill: var(--color1, #d9d9d9)" opacity="0.3" d="M9.846 5.662c0 0.272-0.22 0.492-0.492 0.492s-0.492-0.22-0.492-0.492c0-0.272 0.22-0.492 0.492-0.492s0.492 0.22 0.492 0.492z"></path>
<path fill="#d9d9d9" style="fill: var(--color1, #d9d9d9)" opacity="0.3" d="M14.277 5.662c0 0.272-0.22 0.492-0.492 0.492s-0.492-0.22-0.492-0.492c0-0.272 0.22-0.492 0.492-0.492s0.492 0.22 0.492 0.492z"></path>
<path fill="#d9d9d9" style="fill: var(--color1, #d9d9d9)" opacity="0.3" d="M18.708 5.662c0 0.272-0.22 0.492-0.492 0.492s-0.492-0.22-0.492-0.492c0-0.272 0.22-0.492 0.492-0.492s0.492 0.22 0.492 0.492z"></path>
<path fill="#d9d9d9" style="fill: var(--color1, #d9d9d9)" opacity="0.3" d="M23.138 5.662c0 0.272-0.22 0.492-0.492 0.492s-0.492-0.22-0.492-0.492c0-0.272 0.22-0.492 0.492-0.492s0.492 0.22 0.492 0.492z"></path>
<path fill="#d9d9d9" style="fill: var(--color1, #d9d9d9)" opacity="0.3" d="M27.569 5.662c0 0.272-0.22 0.492-0.492 0.492s-0.492-0.22-0.492-0.492c0-0.272 0.22-0.492 0.492-0.492s0.492 0.22 0.492 0.492z"></path>
<path fill="#d9d9d9" style="fill: var(--color1, #d9d9d9)" opacity="0.3" d="M32 5.662c0 0.272-0.22 0.492-0.492 0.492s-0.492-0.22-0.492-0.492c0-0.272 0.22-0.492 0.492-0.492s0.492 0.22 0.492 0.492z"></path>
<path fill="#d9d9d9" style="fill: var(--color1, #d9d9d9)" opacity="0.3" d="M1.108 8.615c0 0.272-0.248 0.492-0.554 0.492s-0.554-0.22-0.554-0.492c0-0.272 0.248-0.492 0.554-0.492s0.554 0.22 0.554 0.492z"></path>
<path fill="#d9d9d9" style="fill: var(--color1, #d9d9d9)" opacity="0.3" d="M5.538 8.615c0 0.272-0.248 0.492-0.554 0.492s-0.554-0.22-0.554-0.492c0-0.272 0.248-0.492 0.554-0.492s0.554 0.22 0.554 0.492z"></path>
<path fill="#d9d9d9" style="fill: var(--color1, #d9d9d9)" opacity="0.3" d="M9.846 8.615c0 0.272-0.22 0.492-0.492 0.492s-0.492-0.22-0.492-0.492c0-0.272 0.22-0.492 0.492-0.492s0.492 0.22 0.492 0.492z"></path>
<path fill="#d9d9d9" style="fill: var(--color1, #d9d9d9)" opacity="0.3" d="M14.277 8.615c0 0.272-0.22 0.492-0.492 0.492s-0.492-0.22-0.492-0.492c0-0.272 0.22-0.492 0.492-0.492s0.492 0.22 0.492 0.492z"></path>
<path fill="#d9d9d9" style="fill: var(--color1, #d9d9d9)" opacity="0.3" d="M18.708 8.615c0 0.272-0.22 0.492-0.492 0.492s-0.492-0.22-0.492-0.492c0-0.272 0.22-0.492 0.492-0.492s0.492 0.22 0.492 0.492z"></path>
<path fill="#d9d9d9" style="fill: var(--color1, #d9d9d9)" opacity="0.3" d="M23.138 8.615c0 0.272-0.22 0.492-0.492 0.492s-0.492-0.22-0.492-0.492c0-0.272 0.22-0.492 0.492-0.492s0.492 0.22 0.492 0.492z"></path>
<path fill="#d9d9d9" style="fill: var(--color1, #d9d9d9)" opacity="0.3" d="M27.569 8.615c0 0.272-0.22 0.492-0.492 0.492s-0.492-0.22-0.492-0.492c0-0.272 0.22-0.492 0.492-0.492s0.492 0.22 0.492 0.492z"></path>
<path fill="#d9d9d9" style="fill: var(--color1, #d9d9d9)" opacity="0.3" d="M32 8.615c0 0.272-0.22 0.492-0.492 0.492s-0.492-0.22-0.492-0.492c0-0.272 0.22-0.492 0.492-0.492s0.492 0.22 0.492 0.492z"></path>
<path fill="#d9d9d9" style="fill: var(--color1, #d9d9d9)" opacity="0.3" d="M1.108 11.569c0 0.272-0.248 0.492-0.554 0.492s-0.554-0.22-0.554-0.492c0-0.272 0.248-0.492 0.554-0.492s0.554 0.22 0.554 0.492z"></path>
<path fill="#d9d9d9" style="fill: var(--color1, #d9d9d9)" opacity="0.3" d="M5.538 11.569c0 0.272-0.248 0.492-0.554 0.492s-0.554-0.22-0.554-0.492c0-0.272 0.248-0.492 0.554-0.492s0.554 0.22 0.554 0.492z"></path>
<path fill="#d9d9d9" style="fill: var(--color1, #d9d9d9)" opacity="0.3" d="M9.846 11.569c0 0.272-0.22 0.492-0.492 0.492s-0.492-0.22-0.492-0.492c0-0.272 0.22-0.492 0.492-0.492s0.492 0.22 0.492 0.492z"></path>
<path fill="#d9d9d9" style="fill: var(--color1, #d9d9d9)" opacity="0.3" d="M14.277 11.569c0 0.272-0.22 0.492-0.492 0.492s-0.492-0.22-0.492-0.492c0-0.272 0.22-0.492 0.492-0.492s0.492 0.22 0.492 0.492z"></path>
<path fill="#d9d9d9" style="fill: var(--color1, #d9d9d9)" opacity="0.3" d="M18.708 11.569c0 0.272-0.22 0.492-0.492 0.492s-0.492-0.22-0.492-0.492c0-0.272 0.22-0.492 0.492-0.492s0.492 0.22 0.492 0.492z"></path>
<path fill="#d9d9d9" style="fill: var(--color1, #d9d9d9)" opacity="0.3" d="M23.138 11.569c0 0.272-0.22 0.492-0.492 0.492s-0.492-0.22-0.492-0.492c0-0.272 0.22-0.492 0.492-0.492s0.492 0.22 0.492 0.492z"></path>
<path fill="#d9d9d9" style="fill: var(--color1, #d9d9d9)" opacity="0.3" d="M27.569 11.569c0 0.272-0.22 0.492-0.492 0.492s-0.492-0.22-0.492-0.492c0-0.272 0.22-0.492 0.492-0.492s0.492 0.22 0.492 0.492z"></path>
<path fill="#d9d9d9" style="fill: var(--color1, #d9d9d9)" opacity="0.3" d="M32 11.569c0 0.272-0.22 0.492-0.492 0.492s-0.492-0.22-0.492-0.492c0-0.272 0.22-0.492 0.492-0.492s0.492 0.22 0.492 0.492z"></path>
<path fill="#d9d9d9" style="fill: var(--color1, #d9d9d9)" opacity="0.3" d="M1.108 14.523c0 0.272-0.248 0.492-0.554 0.492s-0.554-0.22-0.554-0.492c0-0.272 0.248-0.492 0.554-0.492s0.554 0.22 0.554 0.492z"></path>
<path fill="#d9d9d9" style="fill: var(--color1, #d9d9d9)" opacity="0.3" d="M5.538 14.523c0 0.272-0.248 0.492-0.554 0.492s-0.554-0.22-0.554-0.492c0-0.272 0.248-0.492 0.554-0.492s0.554 0.22 0.554 0.492z"></path>
<path fill="#d9d9d9" style="fill: var(--color1, #d9d9d9)" opacity="0.3" d="M9.846 14.523c0 0.272-0.22 0.492-0.492 0.492s-0.492-0.22-0.492-0.492c0-0.272 0.22-0.492 0.492-0.492s0.492 0.22 0.492 0.492z"></path>
<path fill="#d9d9d9" style="fill: var(--color1, #d9d9d9)" opacity="0.3" d="M14.277 14.523c0 0.272-0.22 0.492-0.492 0.492s-0.492-0.22-0.492-0.492c0-0.272 0.22-0.492 0.492-0.492s0.492 0.22 0.492 0.492z"></path>
<path fill="#d9d9d9" style="fill: var(--color1, #d9d9d9)" opacity="0.3" d="M18.708 14.523c0 0.272-0.22 0.492-0.492 0.492s-0.492-0.22-0.492-0.492c0-0.272 0.22-0.492 0.492-0.492s0.492 0.22 0.492 0.492z"></path>
<path fill="#d9d9d9" style="fill: var(--color1, #d9d9d9)" opacity="0.3" d="M23.138 14.523c0 0.272-0.22 0.492-0.492 0.492s-0.492-0.22-0.492-0.492c0-0.272 0.22-0.492 0.492-0.492s0.492 0.22 0.492 0.492z"></path>
<path fill="#d9d9d9" style="fill: var(--color1, #d9d9d9)" opacity="0.3" d="M27.569 14.523c0 0.272-0.22 0.492-0.492 0.492s-0.492-0.22-0.492-0.492c0-0.272 0.22-0.492 0.492-0.492s0.492 0.22 0.492 0.492z"></path>
<path fill="#d9d9d9" style="fill: var(--color1, #d9d9d9)" opacity="0.3" d="M32 14.523c0 0.272-0.22 0.492-0.492 0.492s-0.492-0.22-0.492-0.492c0-0.272 0.22-0.492 0.492-0.492s0.492 0.22 0.492 0.492z"></path>
<path fill="#d9d9d9" style="fill: var(--color1, #d9d9d9)" opacity="0.3" d="M1.108 17.477c0 0.272-0.248 0.492-0.554 0.492s-0.554-0.22-0.554-0.492c0-0.272 0.248-0.492 0.554-0.492s0.554 0.22 0.554 0.492z"></path>
<path fill="#d9d9d9" style="fill: var(--color1, #d9d9d9)" opacity="0.3" d="M5.538 17.477c0 0.272-0.248 0.492-0.554 0.492s-0.554-0.22-0.554-0.492c0-0.272 0.248-0.492 0.554-0.492s0.554 0.22 0.554 0.492z"></path>
<path fill="#d9d9d9" style="fill: var(--color1, #d9d9d9)" opacity="0.3" d="M9.846 17.477c0 0.272-0.22 0.492-0.492 0.492s-0.492-0.22-0.492-0.492c0-0.272 0.22-0.492 0.492-0.492s0.492 0.22 0.492 0.492z"></path>
<path fill="#d9d9d9" style="fill: var(--color1, #d9d9d9)" opacity="0.3" d="M14.277 17.477c0 0.272-0.22 0.492-0.492 0.492s-0.492-0.22-0.492-0.492c0-0.272 0.22-0.492 0.492-0.492s0.492 0.22 0.492 0.492z"></path>
<path fill="#d9d9d9" style="fill: var(--color1, #d9d9d9)" opacity="0.3" d="M18.708 17.477c0 0.272-0.22 0.492-0.492 0.492s-0.492-0.22-0.492-0.492c0-0.272 0.22-0.492 0.492-0.492s0.492 0.22 0.492 0.492z"></path>
<path fill="#d9d9d9" style="fill: var(--color1, #d9d9d9)" opacity="0.3" d="M23.138 17.477c0 0.272-0.22 0.492-0.492 0.492s-0.492-0.22-0.492-0.492c0-0.272 0.22-0.492 0.492-0.492s0.492 0.22 0.492 0.492z"></path>
<path fill="#d9d9d9" style="fill: var(--color1, #d9d9d9)" opacity="0.3" d="M27.569 17.477c0 0.272-0.22 0.492-0.492 0.492s-0.492-0.22-0.492-0.492c0-0.272 0.22-0.492 0.492-0.492s0.492 0.22 0.492 0.492z"></path>
<path fill="#d9d9d9" style="fill: var(--color1, #d9d9d9)" opacity="0.3" d="M32 17.477c0 0.272-0.22 0.492-0.492 0.492s-0.492-0.22-0.492-0.492c0-0.272 0.22-0.492 0.492-0.492s0.492 0.22 0.492 0.492z"></path>
<path fill="#d9d9d9" style="fill: var(--color1, #d9d9d9)" opacity="0.3" d="M1.108 20.431c0 0.272-0.248 0.492-0.554 0.492s-0.554-0.22-0.554-0.492c0-0.272 0.248-0.492 0.554-0.492s0.554 0.22 0.554 0.492z"></path>
<path fill="#d9d9d9" style="fill: var(--color1, #d9d9d9)" opacity="0.3" d="M5.538 20.431c0 0.272-0.248 0.492-0.554 0.492s-0.554-0.22-0.554-0.492c0-0.272 0.248-0.492 0.554-0.492s0.554 0.22 0.554 0.492z"></path>
<path fill="#d9d9d9" style="fill: var(--color1, #d9d9d9)" opacity="0.3" d="M9.846 20.431c0 0.272-0.22 0.492-0.492 0.492s-0.492-0.22-0.492-0.492c0-0.272 0.22-0.492 0.492-0.492s0.492 0.22 0.492 0.492z"></path>
<path fill="#d9d9d9" style="fill: var(--color1, #d9d9d9)" opacity="0.3" d="M14.277 20.431c0 0.272-0.22 0.492-0.492 0.492s-0.492-0.22-0.492-0.492c0-0.272 0.22-0.492 0.492-0.492s0.492 0.22 0.492 0.492z"></path>
<path fill="#d9d9d9" style="fill: var(--color1, #d9d9d9)" opacity="0.3" d="M18.708 20.431c0 0.272-0.22 0.492-0.492 0.492s-0.492-0.22-0.492-0.492c0-0.272 0.22-0.492 0.492-0.492s0.492 0.22 0.492 0.492z"></path>
<path fill="#d9d9d9" style="fill: var(--color1, #d9d9d9)" opacity="0.3" d="M23.138 20.431c0 0.272-0.22 0.492-0.492 0.492s-0.492-0.22-0.492-0.492c0-0.272 0.22-0.492 0.492-0.492s0.492 0.22 0.492 0.492z"></path>
<path fill="#d9d9d9" style="fill: var(--color1, #d9d9d9)" opacity="0.3" d="M27.569 20.431c0 0.272-0.22 0.492-0.492 0.492s-0.492-0.22-0.492-0.492c0-0.272 0.22-0.492 0.492-0.492s0.492 0.22 0.492 0.492z"></path>
<path fill="#d9d9d9" style="fill: var(--color1, #d9d9d9)" opacity="0.3" d="M32 20.431c0 0.272-0.22 0.492-0.492 0.492s-0.492-0.22-0.492-0.492c0-0.272 0.22-0.492 0.492-0.492s0.492 0.22 0.492 0.492z"></path>
<path fill="#d9d9d9" style="fill: var(--color1, #d9d9d9)" opacity="0.3" d="M1.108 23.385c0 0.272-0.248 0.492-0.554 0.492s-0.554-0.22-0.554-0.492c0-0.272 0.248-0.492 0.554-0.492s0.554 0.22 0.554 0.492z"></path>
<path fill="#d9d9d9" style="fill: var(--color1, #d9d9d9)" opacity="0.3" d="M5.538 23.385c0 0.272-0.248 0.492-0.554 0.492s-0.554-0.22-0.554-0.492c0-0.272 0.248-0.492 0.554-0.492s0.554 0.22 0.554 0.492z"></path>
<path fill="#d9d9d9" style="fill: var(--color1, #d9d9d9)" opacity="0.3" d="M9.846 23.385c0 0.272-0.22 0.492-0.492 0.492s-0.492-0.22-0.492-0.492c0-0.272 0.22-0.492 0.492-0.492s0.492 0.22 0.492 0.492z"></path>
<path fill="#d9d9d9" style="fill: var(--color1, #d9d9d9)" opacity="0.3" d="M14.277 23.385c0 0.272-0.22 0.492-0.492 0.492s-0.492-0.22-0.492-0.492c0-0.272 0.22-0.492 0.492-0.492s0.492 0.22 0.492 0.492z"></path>
<path fill="#d9d9d9" style="fill: var(--color1, #d9d9d9)" opacity="0.3" d="M18.708 23.385c0 0.272-0.22 0.492-0.492 0.492s-0.492-0.22-0.492-0.492c0-0.272 0.22-0.492 0.492-0.492s0.492 0.22 0.492 0.492z"></path>
<path fill="#d9d9d9" style="fill: var(--color1, #d9d9d9)" opacity="0.3" d="M23.138 23.385c0 0.272-0.22 0.492-0.492 0.492s-0.492-0.22-0.492-0.492c0-0.272 0.22-0.492 0.492-0.492s0.492 0.22 0.492 0.492z"></path>
<path fill="#d9d9d9" style="fill: var(--color1, #d9d9d9)" opacity="0.3" d="M27.569 23.385c0 0.272-0.22 0.492-0.492 0.492s-0.492-0.22-0.492-0.492c0-0.272 0.22-0.492 0.492-0.492s0.492 0.22 0.492 0.492z"></path>
<path fill="#d9d9d9" style="fill: var(--color1, #d9d9d9)" opacity="0.3" d="M32 23.385c0 0.272-0.22 0.492-0.492 0.492s-0.492-0.22-0.492-0.492c0-0.272 0.22-0.492 0.492-0.492s0.492 0.22 0.492 0.492z"></path>
<path fill="#d9d9d9" style="fill: var(--color1, #d9d9d9)" opacity="0.3" d="M1.108 26.338c0 0.272-0.248 0.492-0.554 0.492s-0.554-0.22-0.554-0.492c0-0.272 0.248-0.492 0.554-0.492s0.554 0.22 0.554 0.492z"></path>
<path fill="#d9d9d9" style="fill: var(--color1, #d9d9d9)" opacity="0.3" d="M5.538 26.338c0 0.272-0.248 0.492-0.554 0.492s-0.554-0.22-0.554-0.492c0-0.272 0.248-0.492 0.554-0.492s0.554 0.22 0.554 0.492z"></path>
<path fill="#d9d9d9" style="fill: var(--color1, #d9d9d9)" opacity="0.3" d="M9.846 26.338c0 0.272-0.22 0.492-0.492 0.492s-0.492-0.22-0.492-0.492c0-0.272 0.22-0.492 0.492-0.492s0.492 0.22 0.492 0.492z"></path>
<path fill="#d9d9d9" style="fill: var(--color1, #d9d9d9)" opacity="0.3" d="M14.277 26.338c0 0.272-0.22 0.492-0.492 0.492s-0.492-0.22-0.492-0.492c0-0.272 0.22-0.492 0.492-0.492s0.492 0.22 0.492 0.492z"></path>
<path fill="#d9d9d9" style="fill: var(--color1, #d9d9d9)" opacity="0.3" d="M18.708 26.338c0 0.272-0.22 0.492-0.492 0.492s-0.492-0.22-0.492-0.492c0-0.272 0.22-0.492 0.492-0.492s0.492 0.22 0.492 0.492z"></path>
<path fill="#d9d9d9" style="fill: var(--color1, #d9d9d9)" opacity="0.3" d="M23.138 26.338c0 0.272-0.22 0.492-0.492 0.492s-0.492-0.22-0.492-0.492c0-0.272 0.22-0.492 0.492-0.492s0.492 0.22 0.492 0.492z"></path>
<path fill="#d9d9d9" style="fill: var(--color1, #d9d9d9)" opacity="0.3" d="M27.569 26.338c0 0.272-0.22 0.492-0.492 0.492s-0.492-0.22-0.492-0.492c0-0.272 0.22-0.492 0.492-0.492s0.492 0.22 0.492 0.492z"></path>
<path fill="#d9d9d9" style="fill: var(--color1, #d9d9d9)" opacity="0.3" d="M32 26.338c0 0.272-0.22 0.492-0.492 0.492s-0.492-0.22-0.492-0.492c0-0.272 0.22-0.492 0.492-0.492s0.492 0.22 0.492 0.492z"></path>
</symbol>
<symbol id="icon-envelope-regular-1" viewBox="0 0 32 32">
<path fill="#fff" style="fill: var(--color2, #fff)" d="M2.963 0.526h26.074v30.527h-26.074v-30.527z"></path>
<path fill="#cfcfcf" style="fill: var(--color3, #cfcfcf)" d="M2.963 8.158c0-2.108 1.459-3.816 3.259-3.816h19.556c1.798 0 3.259 1.708 3.259 3.816v15.264c0 2.105-1.462 3.816-3.259 3.816h-19.556c-1.8 0-3.259-1.711-3.259-3.816v-15.264zM5.407 8.158v1.318l8.785 8.443c1.049 1.014 2.567 1.014 3.616 0l8.785-8.443v-1.371c0-0.471-0.367-0.954-0.815-0.954h-19.556c-0.45 0-0.815 0.483-0.815 0.954v0.054zM5.407 13.179v10.243c0 0.525 0.365 0.954 0.815 0.954h19.556c0.448 0 0.815-0.429 0.815-0.954v-10.243l-7.232 6.952c-1.956 1.878-4.767 1.878-6.768 0l-7.186-6.952z"></path>
</symbol>
<symbol id="icon-facebook-f-1" viewBox="0 0 32 32">
<path d="M23.525 18l0.898-5.791h-5.615v-3.758c0-1.584 0.784-3.129 3.299-3.129h2.553v-4.931c0 0-2.317-0.391-4.532-0.391-4.624 0-7.647 2.774-7.647 7.795v4.414h-5.14v5.791h5.14v14h6.327v-14h4.717z"></path>
</symbol>
<symbol id="icon-instagram-1" viewBox="0 0 32 32">
<path d="M16.006 8.813c-4.038 0-7.295 3.206-7.295 7.181s3.257 7.181 7.295 7.181c4.038 0 7.295-3.206 7.295-7.181s-3.257-7.181-7.295-7.181zM16.006 20.663c-2.61 0-4.743-2.094-4.743-4.669s2.127-4.669 4.743-4.669 4.743 2.094 4.743 4.669c0 2.575-2.133 4.669-4.743 4.669zM25.302 8.519c0 0.931-0.762 1.675-1.701 1.675-0.946 0-1.701-0.75-1.701-1.675s0.762-1.675 1.701-1.675c0.94 0 1.701 0.75 1.701 1.675zM30.133 10.219c-0.108-2.244-0.629-4.231-2.299-5.869-1.663-1.638-3.683-2.15-5.962-2.263-2.349-0.131-9.391-0.131-11.74 0-2.273 0.106-4.292 0.619-5.962 2.256s-2.184 3.625-2.298 5.869c-0.133 2.313-0.133 9.244 0 11.556 0.108 2.244 0.629 4.231 2.298 5.869s3.683 2.15 5.962 2.263c2.349 0.131 9.39 0.131 11.74 0 2.279-0.106 4.298-0.619 5.962-2.263 1.663-1.637 2.184-3.625 2.299-5.869 0.133-2.313 0.133-9.238 0-11.55zM27.098 24.25c-0.495 1.225-1.454 2.169-2.705 2.662-1.873 0.731-6.317 0.563-8.387 0.563s-6.521 0.163-8.387-0.563c-1.244-0.487-2.203-1.431-2.705-2.662-0.743-1.844-0.571-6.219-0.571-8.256s-0.165-6.419 0.571-8.256c0.495-1.225 1.454-2.169 2.705-2.662 1.873-0.731 6.317-0.563 8.387-0.563s6.521-0.162 8.387 0.563c1.244 0.487 2.203 1.431 2.705 2.662 0.743 1.844 0.572 6.219 0.572 8.256s0.171 6.419-0.572 8.256z"></path>
</symbol>
<symbol id="icon-linkedin-in-1" viewBox="0 0 32 32">
<path d="M8.268 28h-5.805v-18.694h5.805v18.694zM5.362 6.757c-1.856 0-3.362-1.537-3.362-3.394 0-0.892 0.354-1.747 0.985-2.377s1.486-0.985 2.377-0.985c0.892 0 1.747 0.354 2.377 0.985s0.985 1.486 0.985 2.377c0 1.856-1.506 3.394-3.362 3.394zM29.994 28h-5.793v-9.1c0-2.169-0.044-4.95-3.018-4.95-3.018 0-3.481 2.356-3.481 4.794v9.256h-5.799v-18.694h5.567v2.55h0.081c0.775-1.469 2.668-3.019 5.492-3.019 5.875 0 6.955 3.869 6.955 8.894v10.269h-0.006z"></path>
</symbol>
<symbol id="icon-paper-plane-solid-1" viewBox="0 0 32 32">
<path fill="#fff" style="fill: var(--color2, #fff)" d="M31.132 1.087c0.631 0.417 0.963 1.139 0.844 1.86l-4 24.803c-0.094 0.578-0.463 1.085-1 1.371s-1.181 0.322-1.75 0.095l-7.894-3.13-2.506 4.442c-0.325 0.578-1.019 0.87-1.688 0.71s-1.138-0.733-1.138-1.389v-5.724c0-0.316 0.113-0.626 0.319-0.876l10.331-12.676c0.156-0.423-0.406-0.853-0.812-0.501l-13.188 11.376c-0.575 0.495-1.394 0.632-2.112 0.346l-5.313-2.111c-0.7-0.28-1.175-0.912-1.219-1.64s0.344-1.413 1.006-1.777l28-15.264c0.669-0.364 1.494-0.328 2.125 0.083h-0.006z"></path>
</symbol>
<symbol id="icon-Return" viewBox="0 0 32 32">
<path fill="none" stroke-linejoin="round" stroke-linecap="round" stroke-miterlimit="4" stroke-width="2.0645" stroke="#000" d="M9.405 30.968l-5.276-5.276 5.276-5.276"></path>
<path fill="none" stroke-linejoin="round" stroke-linecap="round" stroke-miterlimit="4" stroke-width="2.0645" stroke="#000" d="M27.871 17.778v2.638c0 1.399-0.556 2.741-1.545 3.731s-2.331 1.545-3.731 1.545h-18.466"></path>
<path fill="none" stroke-linejoin="round" stroke-linecap="round" stroke-miterlimit="4" stroke-width="2.0645" stroke="#000" d="M22.595 1.95l5.276 5.276-5.276 5.276"></path>
<path fill="none" stroke-linejoin="round" stroke-linecap="round" stroke-miterlimit="4" stroke-width="2.0645" stroke="#000" d="M4.129 15.14v-2.638c0-1.399 0.556-2.741 1.545-3.731s2.331-1.545 3.731-1.545h18.466"></path>
</symbol>
<symbol id="icon-Shop-bag" viewBox="0 0 32 32">
<path fill="none" stroke-linejoin="round" stroke-linecap="round" stroke-miterlimit="4" stroke-width="2.8444" stroke="#000" d="M7.467 2.133l-4.267 5.689v19.911c0 0.754 0.3 1.478 0.833 2.011s1.257 0.833 2.011 0.833h19.911c0.754 0 1.478-0.3 2.011-0.833s0.833-1.257 0.833-2.011v-19.911l-4.267-5.689h-17.067z"></path>
<path fill="none" stroke-linejoin="round" stroke-linecap="round" stroke-miterlimit="4" stroke-width="2.8444" stroke="#000" d="M21.689 13.511c0 1.509-0.599 2.956-1.666 4.023s-2.514 1.666-4.023 1.666c-1.509 0-2.956-0.599-4.023-1.666s-1.666-2.514-1.666-4.023"></path>
<path fill="none" stroke-linejoin="round" stroke-linecap="round" stroke-miterlimit="4" stroke-width="2.8444" stroke="#000" d="M3.2 7.822h25.6"></path>
</symbol>
<symbol id="icon-Support" viewBox="0 0 32 32">
<path fill="none" stroke-linejoin="round" stroke-linecap="round" stroke-miterlimit="4" stroke-width="2.2069" stroke="#000" d="M16 30.897c8.227 0 14.897-6.669 14.897-14.897s-6.669-14.897-14.897-14.897c-8.227 0-14.897 6.669-14.897 14.897s6.669 14.897 14.897 14.897z"></path>
<path fill="none" stroke-linejoin="round" stroke-linecap="round" stroke-miterlimit="4" stroke-width="2.2069" stroke="#000" d="M16 21.959c3.291 0 5.959-2.668 5.959-5.959s-2.668-5.959-5.959-5.959c-3.291 0-5.959 2.668-5.959 5.959s2.668 5.959 5.959 5.959z"></path>
<path fill="none" stroke-linejoin="round" stroke-linecap="round" stroke-miterlimit="4" stroke-width="2.2069" stroke="#000" d="M20.216 20.216l6.316 6.316"></path>
<path fill="none" stroke-linejoin="round" stroke-linecap="round" stroke-miterlimit="4" stroke-width="2.2069" stroke="#000" d="M5.468 26.532l6.316-6.316"></path>
<path fill="none" stroke-linejoin="round" stroke-linecap="round" stroke-miterlimit="4" stroke-width="2.2069" stroke="#000" d="M20.216 11.784l6.316-6.316"></path>
<path fill="none" stroke-linejoin="round" stroke-linecap="round" stroke-miterlimit="4" stroke-width="2.2069" stroke="#000" d="M20.216 11.784l5.258-5.258"></path>
<path fill="none" stroke-linejoin="round" stroke-linecap="round" stroke-miterlimit="4" stroke-width="2.2069" stroke="#000" d="M5.468 5.468l6.316 6.316"></path>
</symbol>
<symbol id="icon-Truck" viewBox="0 0 32 32">
<path fill="none" stroke-linejoin="round" stroke-linecap="round" stroke-miterlimit="4" stroke-width="2.5766" stroke="#000" d="M24.374 27.429c1.779 0 3.221-1.442 3.221-3.221s-1.442-3.221-3.221-3.221c-1.779 0-3.221 1.442-3.221 3.221s1.442 3.221 3.221 3.221z"></path>
<path fill="none" stroke-linejoin="round" stroke-linecap="round" stroke-miterlimit="4" stroke-width="2.5766" stroke="#000" d="M7.626 27.429c1.779 0 3.221-1.442 3.221-3.221s-1.442-3.221-3.221-3.221c-1.779 0-3.221 1.442-3.221 3.221s1.442 3.221 3.221 3.221z"></path>
<path fill="none" stroke-linejoin="round" stroke-linecap="round" stroke-miterlimit="4" stroke-width="2.5766" stroke="#000" d="M21.153 10.681h5.153l3.865 3.865v6.442h-9.018v-10.307z"></path>
<path fill="none" stroke-linejoin="round" stroke-linecap="round" stroke-miterlimit="4" stroke-width="2.5766" stroke="#000" d="M21.153 4.239h-19.325v16.748h19.325v-16.748z"></path>
</symbol>
<symbol id="icon-twitter-1" viewBox="0 0 32 32">
<path d="M28.711 9.482c0.020 0.284 0.020 0.569 0.020 0.853 0 8.67-6.599 18.66-18.66 18.66-3.716 0-7.168-1.076-10.071-2.944 0.528 0.061 1.036 0.081 1.584 0.081 3.066 0 5.888-1.035 8.142-2.802-2.883-0.061-5.3-1.949-6.132-4.548 0.406 0.061 0.812 0.102 1.239 0.102 0.589 0 1.178-0.081 1.726-0.223-3.005-0.609-5.259-3.249-5.259-6.437v-0.081c0.873 0.487 1.888 0.792 2.964 0.832-1.766-1.178-2.924-3.188-2.924-5.462 0-1.218 0.325-2.335 0.893-3.31 3.228 3.98 8.081 6.579 13.523 6.863-0.101-0.487-0.162-0.995-0.162-1.502 0-3.614 2.924-6.558 6.558-6.558 1.888 0 3.594 0.792 4.792 2.071 1.482-0.284 2.904-0.832 4.162-1.584-0.487 1.523-1.523 2.802-2.883 3.614 1.32-0.142 2.599-0.508 3.777-1.015-0.893 1.299-2.010 2.457-3.289 3.391z"></path>
</symbol>
<symbol id="icon-search" viewBox="0 0 32 32">
<path d="M31.008 27.231l-7.58-6.447c-0.784-0.705-1.622-1.029-2.299-0.998 1.789-2.096 2.87-4.815 2.87-7.787 0-6.627-5.373-12-12-12s-12 5.373-12 12 5.373 12 12 12c2.972 0 5.691-1.081 7.787-2.87-0.031 0.677 0.293 1.515 0.998 2.299l6.447 7.58c1.104 1.226 2.907 1.33 4.007 0.23s0.997-2.903-0.23-4.007zM12 20c-4.418 0-8-3.582-8-8s3.582-8 8-8 8 3.582 8 8-3.582 8-8 8z"></path>
</symbol>
</defs>
</svg>
