<!-- Generated by IcoMoon.io -->
<svg version="1.1" xmlns="http://www.w3.org/2000/svg" width="32" height="32" viewBox="0 0 32 32">
<title>Truck</title>
<path fill="none" stroke-linejoin="round" stroke-linecap="round" stroke-miterlimit="4" stroke-width="2.5766" stroke="#000" d="M24.374 27.429c1.779 0 3.221-1.442 3.221-3.221s-1.442-3.221-3.221-3.221c-1.779 0-3.221 1.442-3.221 3.221s1.442 3.221 3.221 3.221z"></path>
<path fill="none" stroke-linejoin="round" stroke-linecap="round" stroke-miterlimit="4" stroke-width="2.5766" stroke="#000" d="M7.626 27.429c1.779 0 3.221-1.442 3.221-3.221s-1.442-3.221-3.221-3.221c-1.779 0-3.221 1.442-3.221 3.221s1.442 3.221 3.221 3.221z"></path>
<path fill="none" stroke-linejoin="round" stroke-linecap="round" stroke-miterlimit="4" stroke-width="2.5766" stroke="#000" d="M21.153 10.681h5.153l3.865 3.865v6.442h-9.018v-10.307z"></path>
<path fill="none" stroke-linejoin="round" stroke-linecap="round" stroke-miterlimit="4" stroke-width="2.5766" stroke="#000" d="M21.153 4.239h-19.325v16.748h19.325v-16.748z"></path>
</svg>
